# xmcd
#
# Track frame offsets: 
#        150
#        14908
#        32503
#        63930
#        79890
#        99985
#        123393
#        143153
#        157420
#        171110
#        199458
#
# Disc length: 2990 seconds
#
# Revision: 0
# Processed by: cddbd v1.5.2PL0 Copyright (c) Steve Scherf et al.
# Submitted via: ExactAudioCopy v1.3
#
DISCID=9b0bac0b
DTITLE=Buddy Guy - Slippin' In
DYEAR=1994
DGENRE=Chicago Blues
TTITLE0=I Smell Trouble
TTITLE1=Please Don't Drive Me Away
TTITLE2=7-11
TTITLE3=Shame, Shame, Shame
TTITLE4=Love Her With A Feeling
TTITLE5=Little Dab-A-Doo
TTITLE6=Someone Else Is Steppin' In (Sl
TTITLE7=Trouble Blues
TTITLE8=Man Of Many Words
TTITLE9=Don't Tell Me About The Blues
TTITLE10=Cities Need Help
EXTD=
EXTT0=
EXTT1=
EXTT2=
EXTT3=
EXTT4=
EXTT5=
EXTT6=
EXTT7=
EXTT8=
EXTT9=
EXTT10=
PLAYORDER=
